<svg xmlns="http://www.w3.org/2000/svg" shape-rendering="geometricPrecision" text-rendering="geometricPrecision" image-rendering="optimizeQuality" fill-rule="evenodd" clip-rule="evenodd" viewBox="0 0 466 512.14"><path d="M232.2 0c86.89 55.08 165.39 81.13 232.75 74.98 11.77 237.97-76.11 378.5-231.86 437.16C82.7 457.24-6.26 322.75.34 71.36 79.42 75.5 157.01 58.41 232.2 0zm46.25 220.22v-16.84c0-13.26-5.16-25.28-13.48-33.95-8.22-8.57-19.54-13.9-31.98-13.9-12.43 0-23.75 5.33-31.97 13.9-8.32 8.67-13.48 20.69-13.48 33.95v16.84h90.91zm-111.23 0v-16.84c0-18.65 7.35-35.64 19.19-47.99 11.95-12.45 28.43-20.18 46.59-20.18 18.16 0 34.65 7.72 46.58 20.18 11.85 12.35 19.2 29.34 19.2 47.99v16.84h7.27c5.9 0 10.73 4.83 10.73 10.73v113.42c0 5.91-4.83 10.74-10.73 10.74h-146.1c-5.91 0-10.73-4.83-10.73-10.74V230.95c-.01-5.9 4.82-10.73 10.73-10.73h7.27zm56.97 72.44-11.59 30.33h40.79l-10.73-30.75c6.81-3.5 11.46-10.6 11.46-18.78 0-11.68-9.45-21.13-21.13-21.13-11.66 0-21.12 9.45-21.12 21.13 0 8.51 5.05 15.85 12.32 19.2zm8.16-253.02c72.06 45.67 141.22 71.35 197.09 66.24 9.76 197.35-67.19 317.97-196.33 366.61C108.37 426.97 30.53 311.37 36 102.89c72.38 3.79 138.71-18.47 196.35-63.25z"/></svg>